G04 Layer_Color=65535*
%FSAX25Y25*%
%MOIN*%
G70*
G01*
G75*
%ADD48C,0.00984*%
%ADD49C,0.02362*%
%ADD50C,0.01000*%
%ADD51C,0.00787*%
%ADD52C,0.01181*%
%ADD53C,0.00900*%
%ADD54C,0.00100*%
D48*
X0306802Y0212554D02*
G03*
X0306802Y0212554I-0000492J0000000D01*
G01*
D49*
X0313692Y0220822D02*
G03*
X0313692Y0220822I-0001181J0000000D01*
G01*
D50*
X0305917Y0125677D02*
X0310917D01*
X0299421Y0120189D02*
Y0125189D01*
X0284484Y0226102D02*
Y0308602D01*
X0111984Y0226102D02*
X0284484D01*
X0111484Y0226603D02*
X0111984Y0226102D01*
X0283984Y0309103D02*
X0284484Y0308602D01*
X0111484Y0226603D02*
Y0308602D01*
X0111984Y0309103D01*
X0283984D01*
X0227661Y0204221D02*
X0230761D01*
X0227661Y0189821D02*
Y0204221D01*
X0240661Y0188021D02*
X0241761D01*
X0229461D02*
X0230861D01*
X0240761Y0204321D02*
X0243661D01*
Y0189921D02*
Y0204321D01*
X0241761Y0188021D02*
X0243661Y0189921D01*
X0227661Y0189821D02*
X0229461Y0188021D01*
X0256898Y0196271D02*
X0261898D01*
X0137705Y0316055D02*
X0142705D01*
X0283965Y0146862D02*
X0288965D01*
X0291449Y0137193D02*
X0296449D01*
X0304713Y0131405D02*
Y0136406D01*
X0292508Y0230323D02*
Y0235323D01*
X0341551Y0303300D02*
X0350551D01*
X0341551Y0244200D02*
X0350551D01*
X0341551D02*
Y0303300D01*
X0350551Y0244200D02*
Y0303300D01*
X0170461Y0186949D02*
X0223461D01*
X0170461D02*
Y0215849D01*
X0223461D01*
Y0186949D02*
Y0211749D01*
Y0215849D01*
X0254200Y0273024D02*
Y0278600D01*
X0239800Y0273024D02*
Y0278600D01*
X0241400D01*
X0252600D02*
X0254200D01*
X0239800Y0258900D02*
Y0263900D01*
Y0258900D02*
X0240700Y0258000D01*
X0241400D01*
X0231100Y0297500D02*
X0242400D01*
X0231000Y0285500D02*
X0242400D01*
X0161161Y0219949D02*
X0168999Y0212111D01*
X0136161Y0211949D02*
X0144161Y0219949D01*
X0136161Y0186949D02*
Y0211949D01*
Y0186949D02*
X0147061D01*
X0158061Y0219949D02*
X0161161D01*
X0144161D02*
X0147261D01*
X0168999Y0186949D02*
Y0212111D01*
X0158161Y0186949D02*
X0168999D01*
X0217358Y0312351D02*
Y0340711D01*
X0256358D01*
Y0312311D02*
Y0340711D01*
X0217358Y0312351D02*
X0256358Y0312311D01*
X0262024Y0313159D02*
Y0341498D01*
X0321024D01*
Y0313098D02*
Y0341498D01*
X0262024Y0313159D02*
X0321024Y0313098D01*
X0304955Y0196099D02*
X0350455D01*
X0304955Y0177599D02*
X0350455Y0177599D01*
X0350455Y0192493D02*
X0350455Y0196099D01*
Y0177599D02*
X0350455Y0181815D01*
X0304955Y0196099D02*
X0304955Y0192493D01*
X0304955Y0177599D02*
X0304955Y0181886D01*
X0252800Y0258000D02*
X0253300D01*
X0254200Y0258900D01*
Y0264000D01*
X0312598Y0125591D02*
Y0130089D01*
X0314848D01*
X0315598Y0129339D01*
Y0127840D01*
X0314848Y0127090D01*
X0312598D01*
X0314098D02*
X0315598Y0125591D01*
X0317097Y0129339D02*
X0317847Y0130089D01*
X0319346D01*
X0320096Y0129339D01*
Y0128590D01*
X0319346Y0127840D01*
X0320096Y0127090D01*
Y0126340D01*
X0319346Y0125591D01*
X0317847D01*
X0317097Y0126340D01*
Y0127090D01*
X0317847Y0127840D01*
X0317097Y0128590D01*
Y0129339D01*
X0317847Y0127840D02*
X0319346D01*
X0285138Y0119882D02*
Y0124380D01*
X0287387D01*
X0288137Y0123631D01*
Y0122131D01*
X0287387Y0121381D01*
X0285138D01*
X0286637D02*
X0288137Y0119882D01*
X0289636Y0124380D02*
X0292635D01*
Y0123631D01*
X0289636Y0120632D01*
Y0119882D01*
X0112000Y0312600D02*
Y0318598D01*
X0114999D01*
X0115999Y0317598D01*
Y0315599D01*
X0114999Y0314599D01*
X0112000D01*
X0121997Y0312600D02*
X0117998D01*
X0121997Y0316599D01*
Y0317598D01*
X0120997Y0318598D01*
X0118998D01*
X0117998Y0317598D01*
X0234692Y0217036D02*
X0233942Y0217786D01*
X0232443D01*
X0231693Y0217036D01*
Y0214037D01*
X0232443Y0213287D01*
X0233942D01*
X0234692Y0214037D01*
X0239191Y0217786D02*
X0237691Y0217036D01*
X0236192Y0215536D01*
Y0214037D01*
X0236941Y0213287D01*
X0238441D01*
X0239191Y0214037D01*
Y0214787D01*
X0238441Y0215536D01*
X0236192D01*
X0289075Y0223130D02*
Y0227628D01*
X0291324D01*
X0292074Y0226879D01*
Y0225379D01*
X0291324Y0224629D01*
X0289075D01*
X0290574D02*
X0292074Y0223130D01*
X0296572Y0227628D02*
X0295073Y0226879D01*
X0293573Y0225379D01*
Y0223880D01*
X0294323Y0223130D01*
X0295823D01*
X0296572Y0223880D01*
Y0224629D01*
X0295823Y0225379D01*
X0293573D01*
X0312697Y0132480D02*
Y0136979D01*
X0314946D01*
X0315696Y0136229D01*
Y0134730D01*
X0314946Y0133980D01*
X0312697D01*
X0314196D02*
X0315696Y0132480D01*
X0320194Y0136979D02*
X0317195D01*
Y0134730D01*
X0318695Y0135479D01*
X0319445D01*
X0320194Y0134730D01*
Y0133230D01*
X0319445Y0132480D01*
X0317945D01*
X0317195Y0133230D01*
X0298524Y0138583D02*
Y0143081D01*
X0300773D01*
X0301523Y0142332D01*
Y0140832D01*
X0300773Y0140082D01*
X0298524D01*
X0300023D02*
X0301523Y0138583D01*
X0305271D02*
Y0143081D01*
X0303022Y0140832D01*
X0306021D01*
X0291142Y0145669D02*
Y0150168D01*
X0293391D01*
X0294141Y0149418D01*
Y0147919D01*
X0293391Y0147169D01*
X0291142D01*
X0292641D02*
X0294141Y0145669D01*
X0295640Y0149418D02*
X0296390Y0150168D01*
X0297890D01*
X0298639Y0149418D01*
Y0148668D01*
X0297890Y0147919D01*
X0297140D01*
X0297890D01*
X0298639Y0147169D01*
Y0146419D01*
X0297890Y0145669D01*
X0296390D01*
X0295640Y0146419D01*
X0263878Y0194882D02*
Y0199380D01*
X0266127D01*
X0266877Y0198630D01*
Y0197131D01*
X0266127Y0196381D01*
X0263878D01*
X0265377D02*
X0266877Y0194882D01*
X0271375D02*
X0268376D01*
X0271375Y0197881D01*
Y0198630D01*
X0270626Y0199380D01*
X0269126D01*
X0268376Y0198630D01*
X0135236Y0314173D02*
X0130738D01*
Y0316423D01*
X0131487Y0317172D01*
X0132987D01*
X0133737Y0316423D01*
Y0314173D01*
Y0315673D02*
X0135236Y0317172D01*
Y0318672D02*
Y0320171D01*
Y0319422D01*
X0130738D01*
X0131487Y0318672D01*
X0253248Y0216802D02*
Y0212303D01*
X0255497D01*
X0256247Y0213053D01*
Y0216052D01*
X0255497Y0216802D01*
X0253248D01*
X0257747Y0216052D02*
X0258496Y0216802D01*
X0259996D01*
X0260746Y0216052D01*
Y0215302D01*
X0259996Y0214552D01*
X0259246D01*
X0259996D01*
X0260746Y0213802D01*
Y0213053D01*
X0259996Y0212303D01*
X0258496D01*
X0257747Y0213053D01*
X0130245Y0328937D02*
X0134744D01*
Y0331186D01*
X0133994Y0331936D01*
X0130995D01*
X0130245Y0331186D01*
Y0328937D01*
X0134744Y0336435D02*
Y0333436D01*
X0131745Y0336435D01*
X0130995D01*
X0130245Y0335685D01*
Y0334185D01*
X0130995Y0333436D01*
X0307655Y0266387D02*
X0306905Y0267136D01*
X0305405D01*
X0304656Y0266387D01*
Y0263387D01*
X0305405Y0262638D01*
X0306905D01*
X0307655Y0263387D01*
X0309154Y0262638D02*
X0310654D01*
X0309904D01*
Y0267136D01*
X0309154Y0266387D01*
X0312903D02*
X0313653Y0267136D01*
X0315152D01*
X0315902Y0266387D01*
Y0263387D01*
X0315152Y0262638D01*
X0313653D01*
X0312903Y0263387D01*
Y0266387D01*
X0299947Y0202818D02*
X0299197Y0203567D01*
X0297698D01*
X0296948Y0202818D01*
Y0199819D01*
X0297698Y0199069D01*
X0299197D01*
X0299947Y0199819D01*
X0301447D02*
X0302196Y0199069D01*
X0303696D01*
X0304446Y0199819D01*
Y0202818D01*
X0303696Y0203567D01*
X0302196D01*
X0301447Y0202818D01*
Y0202068D01*
X0302196Y0201318D01*
X0304446D01*
X0306947Y0258467D02*
X0306198Y0259217D01*
X0304698D01*
X0303948Y0258467D01*
Y0255468D01*
X0304698Y0254718D01*
X0306198D01*
X0306947Y0255468D01*
X0308447Y0258467D02*
X0309197Y0259217D01*
X0310696D01*
X0311446Y0258467D01*
Y0257717D01*
X0310696Y0256967D01*
X0311446Y0256218D01*
Y0255468D01*
X0310696Y0254718D01*
X0309197D01*
X0308447Y0255468D01*
Y0256218D01*
X0309197Y0256967D01*
X0308447Y0257717D01*
Y0258467D01*
X0309197Y0256967D02*
X0310696D01*
X0293255Y0258080D02*
X0292505Y0258829D01*
X0291006D01*
X0290256Y0258080D01*
Y0255081D01*
X0291006Y0254331D01*
X0292505D01*
X0293255Y0255081D01*
X0294755Y0258829D02*
X0297754D01*
Y0258080D01*
X0294755Y0255081D01*
Y0254331D01*
X0259003Y0187115D02*
X0258253Y0187864D01*
X0256754D01*
X0256004Y0187115D01*
Y0184116D01*
X0256754Y0183366D01*
X0258253D01*
X0259003Y0184116D01*
X0263502Y0187864D02*
X0260503D01*
Y0185615D01*
X0262002Y0186365D01*
X0262752D01*
X0263502Y0185615D01*
Y0184116D01*
X0262752Y0183366D01*
X0261252D01*
X0260503Y0184116D01*
X0330164Y0167036D02*
X0329415Y0167786D01*
X0327915D01*
X0327165Y0167036D01*
Y0164037D01*
X0327915Y0163287D01*
X0329415D01*
X0330164Y0164037D01*
X0331664Y0163287D02*
X0333163D01*
X0332414D01*
Y0167786D01*
X0331664Y0167036D01*
X0338412Y0163287D02*
X0335413D01*
X0338412Y0166286D01*
Y0167036D01*
X0337662Y0167786D01*
X0336162D01*
X0335413Y0167036D01*
X0308216Y0167332D02*
X0307466Y0168081D01*
X0305966D01*
X0305217Y0167332D01*
Y0164332D01*
X0305966Y0163583D01*
X0307466D01*
X0308216Y0164332D01*
X0309715Y0163583D02*
X0311215D01*
X0310465D01*
Y0168081D01*
X0309715Y0167332D01*
X0313464Y0163583D02*
X0314963D01*
X0314214D01*
Y0168081D01*
X0313464Y0167332D01*
X0342101Y0306750D02*
Y0311248D01*
X0344351D01*
X0345100Y0310499D01*
Y0308999D01*
X0344351Y0308249D01*
X0342101D01*
X0346600Y0306750D02*
X0348099D01*
X0347350D01*
Y0311248D01*
X0346600Y0310499D01*
X0210561Y0222248D02*
X0212060D01*
X0211310D01*
Y0217749D01*
X0210561D01*
X0212060D01*
X0217308Y0221498D02*
X0216559Y0222248D01*
X0215059D01*
X0214309Y0221498D01*
Y0218499D01*
X0215059Y0217749D01*
X0216559D01*
X0217308Y0218499D01*
X0221807Y0217749D02*
X0218808D01*
X0221807Y0220748D01*
Y0221498D01*
X0221057Y0222248D01*
X0219558D01*
X0218808Y0221498D01*
X0255599Y0294398D02*
X0252600D01*
Y0292149D01*
X0254099D01*
X0252600D01*
Y0289900D01*
X0257099D02*
X0258598D01*
X0257848D01*
Y0294398D01*
X0257099Y0293649D01*
X0256700Y0279298D02*
Y0274800D01*
X0258949D01*
X0259699Y0275550D01*
Y0278549D01*
X0258949Y0279298D01*
X0256700D01*
X0261198Y0274800D02*
X0262698D01*
X0261948D01*
Y0279298D01*
X0261198Y0278549D01*
X0133412Y0221465D02*
X0132663Y0222215D01*
X0131163D01*
X0130413Y0221465D01*
Y0218466D01*
X0131163Y0217717D01*
X0132663D01*
X0133412Y0218466D01*
X0137161Y0217717D02*
Y0222215D01*
X0134912Y0219966D01*
X0137911D01*
X0342576Y0203638D02*
Y0202888D01*
X0344075Y0201389D01*
X0345575Y0202888D01*
Y0203638D01*
X0344075Y0201389D02*
Y0199139D01*
X0347074D02*
X0348574D01*
X0347824D01*
Y0203638D01*
X0347074Y0202888D01*
X0289370Y0349479D02*
Y0345730D01*
X0290120Y0344980D01*
X0291619D01*
X0292369Y0345730D01*
Y0349479D01*
X0293869Y0348729D02*
X0294618Y0349479D01*
X0296118D01*
X0296868Y0348729D01*
Y0347979D01*
X0296118Y0347230D01*
X0295368D01*
X0296118D01*
X0296868Y0346480D01*
Y0345730D01*
X0296118Y0344980D01*
X0294618D01*
X0293869Y0345730D01*
X0330315Y0254302D02*
Y0250553D01*
X0331065Y0249803D01*
X0332564D01*
X0333314Y0250553D01*
Y0254302D01*
X0337812Y0249803D02*
X0334813D01*
X0337812Y0252802D01*
Y0253552D01*
X0337063Y0254302D01*
X0335563D01*
X0334813Y0253552D01*
X0231791Y0347904D02*
Y0344155D01*
X0232541Y0343406D01*
X0234041D01*
X0234790Y0344155D01*
Y0347904D01*
X0236290Y0343406D02*
X0237789D01*
X0237040D01*
Y0347904D01*
X0236290Y0347154D01*
X0198327Y0349741D02*
Y0353074D01*
X0197660Y0353740D01*
X0196327D01*
X0195661Y0353074D01*
Y0349741D01*
X0191662Y0350408D02*
X0192329Y0349741D01*
X0193662D01*
X0194328Y0350408D01*
Y0351074D01*
X0193662Y0351741D01*
X0192329D01*
X0191662Y0352407D01*
Y0353074D01*
X0192329Y0353740D01*
X0193662D01*
X0194328Y0353074D01*
X0190329Y0349741D02*
Y0353740D01*
X0188330D01*
X0187664Y0353074D01*
Y0352407D01*
X0188330Y0351741D01*
X0190329D01*
X0188330D01*
X0187664Y0351074D01*
Y0350408D01*
X0188330Y0349741D01*
X0190329D01*
X0186331Y0351741D02*
X0183665D01*
X0182332Y0353740D02*
Y0349741D01*
X0180333D01*
X0179666Y0350408D01*
Y0351741D01*
X0180333Y0352407D01*
X0182332D01*
X0176334Y0349741D02*
X0177667D01*
X0178333Y0350408D01*
Y0353074D01*
X0177667Y0353740D01*
X0176334D01*
X0175667Y0353074D01*
Y0350408D01*
X0176334Y0349741D01*
X0174335D02*
Y0353740D01*
X0173002Y0352407D01*
X0171669Y0353740D01*
Y0349741D01*
X0167670D02*
X0170336D01*
Y0353740D01*
X0167670D01*
X0170336Y0351741D02*
X0169003D01*
X0166337Y0353740D02*
Y0349741D01*
X0164338D01*
X0163671Y0350408D01*
Y0351741D01*
X0164338Y0352407D01*
X0166337D01*
X0165004D02*
X0163671Y0353740D01*
X0141121Y0114223D02*
Y0109724D01*
X0143370D01*
X0144120Y0110474D01*
Y0111224D01*
X0143370Y0111973D01*
X0141121D01*
X0143370D01*
X0144120Y0112723D01*
Y0113473D01*
X0143370Y0114223D01*
X0141121D01*
X0145620D02*
X0148619D01*
X0147119D01*
Y0109724D01*
X0150118D02*
X0151618D01*
X0150868D01*
Y0114223D01*
X0150118Y0113473D01*
D51*
X0252761Y0194349D02*
Y0194749D01*
X0247561Y0194349D02*
Y0194749D01*
X0254816Y0203258D02*
X0255216D01*
X0254816Y0208458D02*
X0255216D01*
X0137609Y0332087D02*
Y0332487D01*
X0142809Y0332087D02*
Y0332487D01*
X0298218Y0245957D02*
Y0246357D01*
X0293018Y0245958D02*
Y0246357D01*
X0324737Y0267163D02*
X0325020D01*
X0324808Y0262001D02*
X0325091Y0262001D01*
X0313424Y0203806D02*
X0313848Y0203806D01*
X0313494Y0198645D02*
X0313777Y0198644D01*
X0320006Y0259328D02*
X0320407Y0259328D01*
X0320006Y0254128D02*
X0320407D01*
X0332777Y0175077D02*
X0333201Y0175077D01*
X0332847Y0169915D02*
X0333130Y0169915D01*
X0309744Y0169751D02*
X0310168Y0169751D01*
X0309815Y0174913D02*
X0310098Y0174913D01*
X0155300Y0310911D02*
X0207032D01*
X0155300D02*
Y0314469D01*
X0207032Y0310911D02*
Y0314469D01*
X0155300D02*
X0207032D01*
X0155300Y0370711D02*
X0207032D01*
Y0315011D02*
Y0322711D01*
X0155300Y0315011D02*
Y0322711D01*
Y0337811D02*
Y0370711D01*
X0207032Y0337811D02*
Y0370711D01*
X0308574Y0216885D02*
X0332589D01*
X0308574Y0240900D02*
X0332589D01*
X0308574Y0216885D02*
Y0240900D01*
X0332589D02*
X0332589Y0216885D01*
D52*
X0181166Y0356971D02*
Y0369176D01*
Y0356971D02*
X0183166Y0363471D01*
X0179166D02*
X0181166Y0356971D01*
D53*
X0263921Y0170224D02*
X0277921D01*
Y0127224D02*
Y0170224D01*
X0263921Y0127224D02*
X0277921D01*
X0263921D02*
Y0170224D01*
X0279921Y0117224D02*
Y0148724D01*
X0138921Y0117224D02*
X0279921D01*
X0138421Y0117724D02*
X0138921Y0117224D01*
X0138421Y0117724D02*
Y0180224D01*
X0279921D01*
Y0148724D02*
Y0180224D01*
D54*
X0319317Y0161265D02*
X0321816D01*
X0319317Y0161165D02*
X0321816D01*
X0319317Y0161065D02*
X0321917D01*
X0319216Y0160965D02*
X0321917D01*
X0319216Y0160865D02*
X0321917D01*
X0319216Y0160765D02*
X0321917D01*
X0319216Y0160665D02*
X0321917D01*
X0319216Y0160565D02*
X0322017D01*
X0319216Y0160465D02*
X0322017D01*
X0319116Y0160365D02*
X0322017D01*
X0319116Y0160265D02*
X0322017D01*
X0319116Y0160165D02*
X0322017D01*
X0319116Y0160065D02*
X0322017D01*
X0319017Y0159965D02*
X0322116D01*
X0319017Y0159865D02*
X0322116D01*
X0319017Y0159765D02*
X0322116D01*
X0315317Y0159665D02*
X0315417D01*
X0319017D02*
X0322116D01*
X0325716D02*
X0325816D01*
X0315216Y0159565D02*
X0315516D01*
X0319017D02*
X0322116D01*
X0325617D02*
X0325917D01*
X0315117Y0159465D02*
X0315717D01*
X0319017D02*
X0322217D01*
X0325416D02*
X0326116D01*
X0315017Y0159365D02*
X0315816D01*
X0319017D02*
X0322217D01*
X0325317D02*
X0326116D01*
X0314916Y0159265D02*
X0315916D01*
X0319017D02*
X0322217D01*
X0325217D02*
X0326217D01*
X0314816Y0159165D02*
X0316116D01*
X0318917D02*
X0322217D01*
X0325016D02*
X0326316D01*
X0314717Y0159065D02*
X0316216D01*
X0318917D02*
X0322217D01*
X0324917D02*
X0326416D01*
X0314616Y0158965D02*
X0316417D01*
X0318816D02*
X0322217D01*
X0324716D02*
X0326517D01*
X0314516Y0158865D02*
X0316516D01*
X0318617D02*
X0322617D01*
X0324617D02*
X0326617D01*
X0314417Y0158765D02*
X0316717D01*
X0318317D02*
X0322816D01*
X0324416D02*
X0326716D01*
X0314317Y0158665D02*
X0316816D01*
X0318116D02*
X0323017D01*
X0324317D02*
X0326917D01*
X0314216Y0158565D02*
X0316916D01*
X0317916D02*
X0323217D01*
X0324217D02*
X0326917D01*
X0314117Y0158465D02*
X0317116D01*
X0317717D02*
X0323416D01*
X0324016D02*
X0327016D01*
X0314017Y0158365D02*
X0327116D01*
X0313916Y0158265D02*
X0327217D01*
X0313816Y0158165D02*
X0327316D01*
X0313717Y0158065D02*
X0327416D01*
X0313616Y0157965D02*
X0327517D01*
X0313717Y0157865D02*
X0327517D01*
X0313717Y0157765D02*
X0327416D01*
X0313816Y0157665D02*
X0327316D01*
X0313816Y0157565D02*
X0327316D01*
X0313916Y0157465D02*
X0327217D01*
X0314017Y0157365D02*
X0327116D01*
X0314117Y0157265D02*
X0327116D01*
X0314117Y0157165D02*
X0327016D01*
X0314216Y0157065D02*
X0327016D01*
X0314216Y0156965D02*
X0326917D01*
X0314317Y0156865D02*
X0326817D01*
X0314417Y0156765D02*
X0326716D01*
X0314516Y0156665D02*
X0326617D01*
X0314516Y0156565D02*
X0326617D01*
X0314616Y0156465D02*
X0326517D01*
X0314717Y0156365D02*
X0326416D01*
X0314717Y0156265D02*
X0326416D01*
X0314816Y0156165D02*
X0326316D01*
X0314916Y0156065D02*
X0326316D01*
X0314916Y0155965D02*
X0326217D01*
X0314916Y0155865D02*
X0326316D01*
X0314816Y0155765D02*
X0326316D01*
X0314816Y0155665D02*
X0326316D01*
X0314717Y0155565D02*
X0326416D01*
X0314717Y0155465D02*
X0326416D01*
X0314616Y0155365D02*
X0326517D01*
X0314616Y0155265D02*
X0326517D01*
X0314616Y0155165D02*
X0326617D01*
X0314516Y0155065D02*
X0326617D01*
X0314516Y0154965D02*
X0320116D01*
X0321017D02*
X0326716D01*
X0314417Y0154865D02*
X0319717D01*
X0321416D02*
X0326716D01*
X0314417Y0154765D02*
X0319416D01*
X0321716D02*
X0326716D01*
X0314317Y0154665D02*
X0319317D01*
X0321816D02*
X0326817D01*
X0314317Y0154565D02*
X0319216D01*
X0322017D02*
X0326817D01*
X0314216Y0154465D02*
X0319017D01*
X0322116D02*
X0326917D01*
X0314017Y0154365D02*
X0318917D01*
X0322217D02*
X0327116D01*
X0313516Y0154265D02*
X0318816D01*
X0322317D02*
X0327617D01*
X0313117Y0154165D02*
X0318816D01*
X0322416D02*
X0328016D01*
X0312717Y0154065D02*
X0318717D01*
X0322516D02*
X0328517D01*
X0312017Y0153965D02*
X0318617D01*
X0322516D02*
X0329117D01*
X0311916Y0153865D02*
X0318516D01*
X0322617D02*
X0329217D01*
X0311916Y0153765D02*
X0318516D01*
X0322617D02*
X0329217D01*
X0311916Y0153665D02*
X0318417D01*
X0322716D02*
X0329217D01*
X0311916Y0153565D02*
X0318417D01*
X0322716D02*
X0329217D01*
X0311916Y0153465D02*
X0318317D01*
X0322816D02*
X0329217D01*
X0311916Y0153365D02*
X0318317D01*
X0322816D02*
X0329217D01*
X0311916Y0153265D02*
X0318317D01*
X0322816D02*
X0329217D01*
X0311916Y0153165D02*
X0318317D01*
X0322917D02*
X0329217D01*
X0311916Y0153065D02*
X0318216D01*
X0322917D02*
X0329217D01*
X0311916Y0152965D02*
X0318216D01*
X0322917D02*
X0329217D01*
X0311916Y0152865D02*
X0318216D01*
X0322917D02*
X0329217D01*
X0311916Y0152765D02*
X0318216D01*
X0322917D02*
X0329217D01*
X0311916Y0152665D02*
X0318216D01*
X0322917D02*
X0329217D01*
X0311916Y0152565D02*
X0318216D01*
X0322917D02*
X0329217D01*
X0311916Y0152465D02*
X0318216D01*
X0322917D02*
X0329217D01*
X0311916Y0152365D02*
X0318216D01*
X0322917D02*
X0329217D01*
X0311916Y0152265D02*
X0318317D01*
X0322917D02*
X0329217D01*
X0311916Y0152165D02*
X0318317D01*
X0322816D02*
X0329217D01*
X0311916Y0152065D02*
X0318317D01*
X0322816D02*
X0329217D01*
X0311916Y0151965D02*
X0318317D01*
X0322816D02*
X0329217D01*
X0311916Y0151865D02*
X0318417D01*
X0322716D02*
X0329217D01*
X0311916Y0151765D02*
X0318417D01*
X0322716D02*
X0329217D01*
X0311916Y0151665D02*
X0318516D01*
X0322716D02*
X0329217D01*
X0311916Y0151565D02*
X0318516D01*
X0322617D02*
X0329217D01*
X0312017Y0151465D02*
X0318617D01*
X0322617D02*
X0329117D01*
X0312417Y0151365D02*
X0318617D01*
X0322516D02*
X0328716D01*
X0313117Y0151265D02*
X0318717D01*
X0322416D02*
X0328116D01*
X0313516Y0151165D02*
X0318816D01*
X0322317D02*
X0327617D01*
X0314216Y0151065D02*
X0318917D01*
X0322217D02*
X0327016D01*
X0314216Y0150965D02*
X0319017D01*
X0322116D02*
X0326917D01*
X0314216Y0150865D02*
X0319116D01*
X0322017D02*
X0326917D01*
X0314317Y0150765D02*
X0319317D01*
X0321917D02*
X0326817D01*
X0314317Y0150665D02*
X0319416D01*
X0321716D02*
X0326817D01*
X0314417Y0150565D02*
X0319617D01*
X0321516D02*
X0326716D01*
X0314417Y0150465D02*
X0319717D01*
X0321416D02*
X0326716D01*
X0314516Y0150365D02*
X0319717D01*
X0321416D02*
X0326716D01*
X0314516Y0150265D02*
X0319717D01*
X0321516D02*
X0326617D01*
X0314516Y0150165D02*
X0319617D01*
X0321516D02*
X0326617D01*
X0314616Y0150065D02*
X0319617D01*
X0321516D02*
X0326617D01*
X0314616Y0149965D02*
X0319516D01*
X0321617D02*
X0326517D01*
X0314616Y0149865D02*
X0319516D01*
X0321617D02*
X0326517D01*
X0314717Y0149765D02*
X0319416D01*
X0321716D02*
X0326416D01*
X0314717Y0149665D02*
X0319416D01*
X0321716D02*
X0326416D01*
X0314816Y0149565D02*
X0319416D01*
X0321816D02*
X0326416D01*
X0314816Y0149465D02*
X0319317D01*
X0321816D02*
X0326316D01*
X0314816Y0149365D02*
X0319317D01*
X0321816D02*
X0326316D01*
X0314816Y0149265D02*
X0319317D01*
X0321917D02*
X0326316D01*
X0314816Y0149165D02*
X0319216D01*
X0321917D02*
X0326416D01*
X0314717Y0149065D02*
X0319116D01*
X0322017D02*
X0326416D01*
X0314616Y0148965D02*
X0319116D01*
X0322017D02*
X0326517D01*
X0314516Y0148865D02*
X0319017D01*
X0322116D02*
X0326617D01*
X0314516Y0148765D02*
X0319017D01*
X0322116D02*
X0326617D01*
X0314417Y0148665D02*
X0319017D01*
X0322217D02*
X0326716D01*
X0314317Y0148565D02*
X0319017D01*
X0322217D02*
X0326817D01*
X0314216Y0148465D02*
X0318917D01*
X0322217D02*
X0326917D01*
X0314216Y0148365D02*
X0318917D01*
X0322217D02*
X0327016D01*
X0314117Y0148265D02*
X0318917D01*
X0322317D02*
X0327016D01*
X0314117Y0148165D02*
X0318816D01*
X0322317D02*
X0327116D01*
X0314017Y0148065D02*
X0318816D01*
X0322317D02*
X0327116D01*
X0313916Y0147965D02*
X0318717D01*
X0322416D02*
X0327217D01*
X0313816Y0147865D02*
X0318617D01*
X0322416D02*
X0327316D01*
X0313816Y0147765D02*
X0318617D01*
X0322516D02*
X0327316D01*
X0313717Y0147665D02*
X0318617D01*
X0322516D02*
X0327416D01*
X0313717Y0147565D02*
X0318617D01*
X0322617D02*
X0327517D01*
X0313616Y0147465D02*
X0318516D01*
X0322617D02*
X0327517D01*
X0313717Y0147365D02*
X0318516D01*
X0322716D02*
X0327416D01*
X0313816Y0147265D02*
X0318417D01*
X0322716D02*
X0327416D01*
X0313916Y0147165D02*
X0318417D01*
X0322716D02*
X0327217D01*
X0314017Y0147065D02*
X0318317D01*
X0322816D02*
X0327116D01*
X0314117Y0146965D02*
X0317116D01*
X0317216D02*
X0318317D01*
X0322816D02*
X0323917D01*
X0324016D02*
X0327016D01*
X0314216Y0146865D02*
X0316916D01*
X0317417D02*
X0318216D01*
X0322917D02*
X0323716D01*
X0324217D02*
X0327016D01*
X0314317Y0146765D02*
X0316816D01*
X0317617D02*
X0318216D01*
X0322917D02*
X0323617D01*
X0324317D02*
X0326817D01*
X0314417Y0146665D02*
X0316717D01*
X0317717D02*
X0318216D01*
X0323017D02*
X0323416D01*
X0324416D02*
X0326716D01*
X0314516Y0146565D02*
X0316516D01*
X0318017D02*
X0318116D01*
X0323116D02*
X0323217D01*
X0324617D02*
X0326617D01*
X0314616Y0146465D02*
X0316417D01*
X0324716D02*
X0326617D01*
X0314717Y0146365D02*
X0316317D01*
X0324816D02*
X0326416D01*
X0314816Y0146265D02*
X0316116D01*
X0325016D02*
X0326316D01*
X0314916Y0146165D02*
X0315916D01*
X0325217D02*
X0326217D01*
X0315017Y0146065D02*
X0315816D01*
X0325317D02*
X0326116D01*
X0315117Y0145965D02*
X0315717D01*
X0325416D02*
X0326116D01*
X0315216Y0145865D02*
X0315516D01*
X0325617D02*
X0325917D01*
M02*
