G04 Layer_Color=8388736*
%FSAX25Y25*%
%MOIN*%
G70*
G01*
G75*
%ADD55R,0.05918X0.04737*%
%ADD56R,0.04737X0.05918*%
%ADD57R,0.07887X0.13398*%
%ADD58R,0.06706X0.05918*%
%ADD59R,0.05918X0.06706*%
%ADD60R,0.25210X0.23635*%
%ADD61R,0.12611X0.07099*%
%ADD62R,0.06800X0.06800*%
%ADD63R,0.09855X0.09855*%
%ADD64R,0.07808X0.13398*%
%ADD65R,0.09461X0.16942*%
G04:AMPARAMS|DCode=66|XSize=28mil|YSize=61.15mil|CornerRadius=9mil|HoleSize=0mil|Usage=FLASHONLY|Rotation=90.000|XOffset=0mil|YOffset=0mil|HoleType=Round|Shape=RoundedRectangle|*
%AMROUNDEDRECTD66*
21,1,0.02800,0.04315,0,0,90.0*
21,1,0.01000,0.06115,0,0,90.0*
1,1,0.01800,0.02158,0.00500*
1,1,0.01800,0.02158,-0.00500*
1,1,0.01800,-0.02158,-0.00500*
1,1,0.01800,-0.02158,0.00500*
%
%ADD66ROUNDEDRECTD66*%
G04:AMPARAMS|DCode=67|XSize=28mil|YSize=61.15mil|CornerRadius=9mil|HoleSize=0mil|Usage=FLASHONLY|Rotation=180.000|XOffset=0mil|YOffset=0mil|HoleType=Round|Shape=RoundedRectangle|*
%AMROUNDEDRECTD67*
21,1,0.02800,0.04315,0,0,180.0*
21,1,0.01000,0.06115,0,0,180.0*
1,1,0.01800,-0.00500,0.02158*
1,1,0.01800,0.00500,0.02158*
1,1,0.01800,0.00500,-0.02158*
1,1,0.01800,-0.00500,-0.02158*
%
%ADD67ROUNDEDRECTD67*%
%ADD68R,0.22650X0.08871*%
G04:AMPARAMS|DCode=69|XSize=158mil|YSize=123mil|CornerRadius=32.75mil|HoleSize=0mil|Usage=FLASHONLY|Rotation=0.000|XOffset=0mil|YOffset=0mil|HoleType=Round|Shape=RoundedRectangle|*
%AMROUNDEDRECTD69*
21,1,0.15800,0.05750,0,0,0.0*
21,1,0.09250,0.12300,0,0,0.0*
1,1,0.06550,0.04625,-0.02875*
1,1,0.06550,-0.04625,-0.02875*
1,1,0.06550,-0.04625,0.02875*
1,1,0.06550,0.04625,0.02875*
%
%ADD69ROUNDEDRECTD69*%
%ADD70C,0.08674*%
%ADD71R,0.07800X0.06800*%
%ADD72C,0.06706*%
%ADD73C,0.13398*%
%ADD74C,0.08300*%
%ADD75R,0.10800X0.10800*%
%ADD76R,0.09800X0.07800*%
%ADD77O,0.09800X0.07800*%
%ADD78C,0.05800*%
%ADD79C,0.28359*%
D55*
X0308417Y0128827D02*
D03*
Y0122528D02*
D03*
X0259398Y0193122D02*
D03*
Y0199421D02*
D03*
X0140205Y0312906D02*
D03*
Y0319205D02*
D03*
X0286465Y0143713D02*
D03*
Y0150012D02*
D03*
X0293949Y0140342D02*
D03*
Y0134043D02*
D03*
D56*
X0296272Y0122689D02*
D03*
X0302571D02*
D03*
X0307862Y0133905D02*
D03*
X0301563D02*
D03*
X0295657Y0232823D02*
D03*
X0289358D02*
D03*
D57*
X0235761Y0187521D02*
D03*
Y0204321D02*
D03*
D58*
X0250161Y0198290D02*
D03*
Y0190809D02*
D03*
X0140209Y0328547D02*
D03*
Y0336028D02*
D03*
X0295618Y0249898D02*
D03*
X0295618Y0242417D02*
D03*
D59*
X0258756Y0205858D02*
D03*
X0251276D02*
D03*
X0321204Y0264577D02*
D03*
X0328684D02*
D03*
X0309890Y0201220D02*
D03*
X0317371D02*
D03*
X0316466Y0256728D02*
D03*
X0323947Y0256728D02*
D03*
X0329243Y0172491D02*
D03*
X0336724D02*
D03*
X0313702Y0172337D02*
D03*
X0306221Y0172337D02*
D03*
D60*
X0208261Y0201349D02*
D03*
D61*
X0179861Y0210328D02*
D03*
X0179961Y0192549D02*
D03*
D62*
X0208361Y0207249D02*
D03*
D63*
X0246987Y0277158D02*
D03*
Y0259442D02*
D03*
D64*
X0226400Y0291500D02*
D03*
X0246990D02*
D03*
D65*
X0152661Y0189784D02*
D03*
Y0216949D02*
D03*
D66*
X0336920Y0217869D02*
D03*
X0336920Y0221019D02*
D03*
Y0224168D02*
D03*
Y0227318D02*
D03*
Y0230467D02*
D03*
Y0233617D02*
D03*
X0336920Y0236767D02*
D03*
X0336920Y0239916D02*
D03*
X0304243D02*
D03*
Y0236767D02*
D03*
X0304243Y0233617D02*
D03*
Y0230467D02*
D03*
Y0227318D02*
D03*
Y0224168D02*
D03*
Y0221019D02*
D03*
X0304243Y0217869D02*
D03*
D67*
X0309558Y0212554D02*
D03*
X0312708D02*
D03*
X0315857D02*
D03*
X0319007D02*
D03*
X0322156Y0212554D02*
D03*
X0325306Y0212554D02*
D03*
X0328456Y0212554D02*
D03*
X0331605Y0212554D02*
D03*
Y0245231D02*
D03*
X0328456Y0245231D02*
D03*
X0325306D02*
D03*
X0322156D02*
D03*
X0319007D02*
D03*
X0315857D02*
D03*
X0312708D02*
D03*
X0309558D02*
D03*
D68*
X0308455Y0187099D02*
D03*
X0345455D02*
D03*
D69*
X0155020Y0348622D02*
D03*
X0207776Y0349410D02*
D03*
X0259744Y0349409D02*
D03*
X0321358D02*
D03*
D70*
X0123984Y0299102D02*
D03*
X0273484D02*
D03*
X0123984Y0236103D02*
D03*
X0273484D02*
D03*
X0277484Y0234103D02*
D03*
X0119484D02*
D03*
X0277484Y0301102D02*
D03*
X0119484D02*
D03*
D71*
X0346051Y0248700D02*
D03*
Y0258700D02*
D03*
Y0268700D02*
D03*
Y0278700D02*
D03*
Y0288700D02*
D03*
Y0298700D02*
D03*
D72*
X0177229Y0319569D02*
D03*
X0185103D02*
D03*
D73*
X0155300Y0330239D02*
D03*
X0207032D02*
D03*
D74*
X0167387Y0319569D02*
D03*
X0194946D02*
D03*
D75*
X0226318Y0328511D02*
D03*
X0246318D02*
D03*
X0270984Y0329298D02*
D03*
X0290984D02*
D03*
X0310984D02*
D03*
D76*
X0271421Y0133724D02*
D03*
D77*
Y0143724D02*
D03*
Y0153724D02*
D03*
Y0163724D02*
D03*
D78*
X0327165Y0254921D02*
D03*
X0299213Y0210925D02*
D03*
X0217815Y0122539D02*
D03*
X0311417Y0132776D02*
D03*
X0140157Y0340748D02*
D03*
X0295374Y0237992D02*
D03*
X0322516Y0173737D02*
D03*
X0215861Y0201349D02*
D03*
Y0208349D02*
D03*
X0201161D02*
D03*
X0207961D02*
D03*
X0201061Y0201349D02*
D03*
X0208461D02*
D03*
X0201161Y0194349D02*
D03*
X0208361D02*
D03*
X0215861D02*
D03*
D79*
X0118307Y0324410D02*
D03*
X0353386Y0147244D02*
D03*
M02*
