G04 Layer_Physical_Order=2*
G04 Layer_Color=16711680*
%FSAX25Y25*%
%MOIN*%
G70*
G01*
G75*
%ADD24C,0.05000*%
%ADD25C,0.02000*%
%ADD26C,0.01500*%
%ADD27C,0.03500*%
%ADD28C,0.06000*%
G04:AMPARAMS|DCode=36|XSize=150mil|YSize=115mil|CornerRadius=28.75mil|HoleSize=0mil|Usage=FLASHONLY|Rotation=0.000|XOffset=0mil|YOffset=0mil|HoleType=Round|Shape=RoundedRectangle|*
%AMROUNDEDRECTD36*
21,1,0.15000,0.05750,0,0,0.0*
21,1,0.09250,0.11500,0,0,0.0*
1,1,0.05750,0.04625,-0.02875*
1,1,0.05750,-0.04625,-0.02875*
1,1,0.05750,-0.04625,0.02875*
1,1,0.05750,0.04625,0.02875*
%
%ADD36ROUNDEDRECTD36*%
%ADD37C,0.07874*%
%ADD38R,0.07000X0.06000*%
%ADD39C,0.05906*%
%ADD40C,0.12598*%
%ADD41C,0.07500*%
%ADD42R,0.10000X0.10000*%
%ADD43R,0.09000X0.07000*%
%ADD44O,0.09000X0.07000*%
%ADD45C,0.05000*%
%ADD46C,0.27559*%
%ADD47C,0.04500*%
D24*
X0207382Y0208465D02*
X0223031Y0224114D01*
X0207961Y0162118D02*
Y0208349D01*
X0246318Y0340038D02*
X0333289D01*
X0170254D02*
X0246318D01*
Y0328511D02*
Y0340038D01*
X0333289D02*
X0346051Y0327275D01*
X0167387Y0337170D02*
X0170254Y0340038D01*
X0346051Y0298700D02*
Y0327275D01*
X0167387Y0319569D02*
Y0337170D01*
X0216355Y0153724D02*
X0271421D01*
X0207961Y0162118D02*
X0216355Y0153724D01*
X0243814Y0224114D02*
X0246300Y0226600D01*
X0223031Y0224114D02*
X0243814D01*
D25*
X0292520Y0210925D02*
X0299213D01*
X0288090Y0215354D02*
X0292520Y0210925D01*
X0288090Y0215354D02*
Y0251772D01*
X0290860Y0254541D01*
X0308957Y0133760D02*
Y0150492D01*
X0305725Y0153724D02*
X0308957Y0150492D01*
X0271421Y0153724D02*
X0305725D01*
X0290860Y0254541D02*
Y0329429D01*
D26*
X0308957Y0150492D02*
X0316240D01*
X0322516Y0156768D01*
Y0173737D01*
X0295472Y0237894D02*
X0346850D01*
X0295374Y0237992D02*
X0295472Y0237894D01*
X0346850D02*
X0353445Y0244488D01*
Y0286221D01*
X0350965Y0288700D02*
X0353445Y0286221D01*
X0346051Y0288700D02*
X0350965D01*
D27*
X0140470Y0319569D02*
X0167387D01*
X0140157Y0319882D02*
X0140470Y0319569D01*
X0140157Y0319882D02*
Y0340748D01*
D28*
X0270984Y0307603D02*
X0277484Y0301102D01*
X0270984Y0307603D02*
Y0329298D01*
X0270196Y0328511D02*
X0270984Y0329298D01*
X0246318Y0328511D02*
X0270196D01*
X0246300Y0284440D02*
X0246360Y0284500D01*
X0246300Y0226600D02*
Y0284440D01*
X0246360Y0284500D02*
Y0328346D01*
Y0281460D02*
Y0284500D01*
D36*
X0155020Y0348622D02*
D03*
X0207776Y0349410D02*
D03*
X0259744Y0349409D02*
D03*
X0321358D02*
D03*
D37*
X0123984Y0299102D02*
D03*
X0273484D02*
D03*
X0123984Y0236103D02*
D03*
X0273484D02*
D03*
X0277484Y0234103D02*
D03*
X0119484D02*
D03*
X0277484Y0301102D02*
D03*
X0119484D02*
D03*
D38*
X0346051Y0248700D02*
D03*
Y0258700D02*
D03*
Y0268700D02*
D03*
Y0278700D02*
D03*
Y0288700D02*
D03*
Y0298700D02*
D03*
D39*
X0177229Y0319569D02*
D03*
X0185103D02*
D03*
D40*
X0155300Y0330239D02*
D03*
X0207032D02*
D03*
D41*
X0167387Y0319569D02*
D03*
X0194946D02*
D03*
D42*
X0226318Y0328511D02*
D03*
X0246318D02*
D03*
X0270984Y0329298D02*
D03*
X0290984D02*
D03*
X0310984D02*
D03*
D43*
X0271421Y0133724D02*
D03*
D44*
Y0143724D02*
D03*
Y0153724D02*
D03*
Y0163724D02*
D03*
D45*
X0327165Y0254921D02*
D03*
X0299213Y0210925D02*
D03*
X0217815Y0122539D02*
D03*
X0311417Y0132776D02*
D03*
X0140157Y0340748D02*
D03*
X0295374Y0237992D02*
D03*
X0322516Y0173737D02*
D03*
X0215861Y0201349D02*
D03*
Y0208349D02*
D03*
X0201161D02*
D03*
X0207961D02*
D03*
X0201061Y0201349D02*
D03*
X0208461D02*
D03*
X0201161Y0194349D02*
D03*
X0208361D02*
D03*
X0215861D02*
D03*
D46*
X0118307Y0324410D02*
D03*
X0353386Y0147244D02*
D03*
D47*
X0333485Y0248700D02*
X0346051D01*
X0310860Y0271325D02*
Y0329232D01*
X0123984Y0299102D02*
X0160028D01*
X0167387Y0306461D01*
Y0319569D01*
X0310860Y0271325D02*
X0333485Y0248700D01*
M02*
