G04 Layer_Physical_Order=1*
G04 Layer_Color=255*
%FSAX25Y25*%
%MOIN*%
G70*
G01*
G75*
%ADD10R,0.05118X0.03937*%
%ADD11R,0.03937X0.05118*%
%ADD12R,0.07087X0.12598*%
%ADD13R,0.05906X0.05118*%
%ADD14R,0.05118X0.05906*%
%ADD15R,0.24410X0.22835*%
%ADD16R,0.11811X0.06299*%
%ADD17R,0.06000X0.06000*%
%ADD18R,0.09055X0.09055*%
%ADD19R,0.07008X0.12598*%
%ADD20R,0.08661X0.16142*%
G04:AMPARAMS|DCode=21|XSize=20mil|YSize=53.15mil|CornerRadius=5mil|HoleSize=0mil|Usage=FLASHONLY|Rotation=90.000|XOffset=0mil|YOffset=0mil|HoleType=Round|Shape=RoundedRectangle|*
%AMROUNDEDRECTD21*
21,1,0.02000,0.04315,0,0,90.0*
21,1,0.01000,0.05315,0,0,90.0*
1,1,0.01000,0.02158,0.00500*
1,1,0.01000,0.02158,-0.00500*
1,1,0.01000,-0.02158,-0.00500*
1,1,0.01000,-0.02158,0.00500*
%
%ADD21ROUNDEDRECTD21*%
G04:AMPARAMS|DCode=22|XSize=20mil|YSize=53.15mil|CornerRadius=5mil|HoleSize=0mil|Usage=FLASHONLY|Rotation=180.000|XOffset=0mil|YOffset=0mil|HoleType=Round|Shape=RoundedRectangle|*
%AMROUNDEDRECTD22*
21,1,0.02000,0.04315,0,0,180.0*
21,1,0.01000,0.05315,0,0,180.0*
1,1,0.01000,-0.00500,0.02158*
1,1,0.01000,0.00500,0.02158*
1,1,0.01000,0.00500,-0.02158*
1,1,0.01000,-0.00500,-0.02158*
%
%ADD22ROUNDEDRECTD22*%
%ADD23R,0.21850X0.08071*%
%ADD24C,0.05000*%
%ADD25C,0.02000*%
%ADD26C,0.01500*%
%ADD27C,0.03500*%
%ADD28C,0.06000*%
%ADD29C,0.03937*%
%ADD30C,0.05906*%
%ADD31R,0.77165X0.18701*%
%ADD32R,0.92224X0.25394*%
%ADD33R,0.24016X0.09843*%
%ADD34R,1.05118X0.21850*%
%ADD35R,0.45177X0.26575*%
G04:AMPARAMS|DCode=36|XSize=150mil|YSize=115mil|CornerRadius=28.75mil|HoleSize=0mil|Usage=FLASHONLY|Rotation=0.000|XOffset=0mil|YOffset=0mil|HoleType=Round|Shape=RoundedRectangle|*
%AMROUNDEDRECTD36*
21,1,0.15000,0.05750,0,0,0.0*
21,1,0.09250,0.11500,0,0,0.0*
1,1,0.05750,0.04625,-0.02875*
1,1,0.05750,-0.04625,-0.02875*
1,1,0.05750,-0.04625,0.02875*
1,1,0.05750,0.04625,0.02875*
%
%ADD36ROUNDEDRECTD36*%
%ADD37C,0.07874*%
%ADD38R,0.07000X0.06000*%
%ADD39C,0.05906*%
%ADD40C,0.12598*%
%ADD41C,0.07500*%
%ADD42R,0.10000X0.10000*%
%ADD43R,0.09000X0.07000*%
%ADD44O,0.09000X0.07000*%
%ADD45C,0.05000*%
%ADD46C,0.27559*%
D10*
X0308417Y0128827D02*
D03*
Y0122528D02*
D03*
X0259398Y0193122D02*
D03*
Y0199421D02*
D03*
X0140205Y0312906D02*
D03*
Y0319205D02*
D03*
X0286465Y0143713D02*
D03*
Y0150012D02*
D03*
X0293949Y0140342D02*
D03*
Y0134043D02*
D03*
D11*
X0296272Y0122689D02*
D03*
X0302571D02*
D03*
X0307862Y0133905D02*
D03*
X0301563D02*
D03*
X0295657Y0232823D02*
D03*
X0289358D02*
D03*
D12*
X0235761Y0187521D02*
D03*
Y0204321D02*
D03*
D13*
X0250161Y0198290D02*
D03*
Y0190809D02*
D03*
X0140209Y0328547D02*
D03*
Y0336028D02*
D03*
X0295618Y0249898D02*
D03*
X0295618Y0242417D02*
D03*
D14*
X0258756Y0205858D02*
D03*
X0251276D02*
D03*
X0321204Y0264577D02*
D03*
X0328684D02*
D03*
X0309890Y0201220D02*
D03*
X0317371D02*
D03*
X0316466Y0256728D02*
D03*
X0323947Y0256728D02*
D03*
X0329243Y0172491D02*
D03*
X0336724D02*
D03*
X0313702Y0172337D02*
D03*
X0306221Y0172337D02*
D03*
D15*
X0208261Y0201349D02*
D03*
D16*
X0179861Y0210328D02*
D03*
X0179961Y0192549D02*
D03*
D17*
X0208361Y0207249D02*
D03*
D18*
X0246987Y0277158D02*
D03*
Y0259442D02*
D03*
D19*
X0226400Y0291500D02*
D03*
X0246990D02*
D03*
D20*
X0152661Y0189784D02*
D03*
Y0216949D02*
D03*
D21*
X0336920Y0217869D02*
D03*
X0336920Y0221019D02*
D03*
Y0224168D02*
D03*
Y0227318D02*
D03*
Y0230467D02*
D03*
Y0233617D02*
D03*
X0336920Y0236767D02*
D03*
X0336920Y0239916D02*
D03*
X0304243D02*
D03*
Y0236767D02*
D03*
X0304243Y0233617D02*
D03*
Y0230467D02*
D03*
Y0227318D02*
D03*
Y0224168D02*
D03*
Y0221019D02*
D03*
X0304243Y0217869D02*
D03*
D22*
X0309558Y0212554D02*
D03*
X0312708D02*
D03*
X0315857D02*
D03*
X0319007D02*
D03*
X0322156Y0212554D02*
D03*
X0325306Y0212554D02*
D03*
X0328456Y0212554D02*
D03*
X0331605Y0212554D02*
D03*
Y0245231D02*
D03*
X0328456Y0245231D02*
D03*
X0325306D02*
D03*
X0322156D02*
D03*
X0319007D02*
D03*
X0315857D02*
D03*
X0312708D02*
D03*
X0309558D02*
D03*
D23*
X0308455Y0187099D02*
D03*
X0345455D02*
D03*
D24*
X0247047Y0234103D02*
X0277484D01*
X0152661Y0216949D02*
Y0228645D01*
Y0213776D02*
Y0216949D01*
X0250261Y0198249D02*
Y0206137D01*
X0213061Y0206149D02*
X0250248D01*
X0208261Y0201349D02*
X0213061Y0206149D01*
X0286529Y0270978D02*
X0310984Y0295432D01*
X0279938Y0182399D02*
X0286529Y0188990D01*
X0310984Y0295432D02*
Y0329298D01*
X0270768Y0164378D02*
Y0182399D01*
X0250248Y0206149D02*
X0250261Y0206137D01*
X0250161Y0182953D02*
Y0190809D01*
X0179961Y0182399D02*
Y0192549D01*
X0156109Y0210328D02*
X0179861D01*
X0152661Y0213776D02*
X0156109Y0210328D01*
X0246987Y0234162D02*
X0247047Y0234103D01*
X0158118D02*
X0247047D01*
X0246987Y0234162D02*
Y0259442D01*
X0152661Y0228645D02*
X0158118Y0234103D01*
X0152720Y0196609D02*
X0157461Y0201349D01*
X0201061D01*
X0208261D01*
X0270768Y0164378D02*
X0271421Y0163724D01*
X0270768Y0182399D02*
X0279938D01*
X0179961D02*
X0270768D01*
X0286529Y0188990D02*
Y0270978D01*
D25*
X0271100Y0152854D02*
X0271887Y0153641D01*
X0295618Y0253787D02*
X0298559Y0256728D01*
X0316466D01*
X0271421Y0133724D02*
X0301378D01*
X0271421Y0143724D02*
X0286453D01*
X0286465Y0143713D01*
X0328129Y0298700D02*
X0346051D01*
X0321204Y0291775D02*
X0328129Y0298700D01*
X0321204Y0264577D02*
Y0291775D01*
X0336920Y0236767D02*
X0351629D01*
X0354035Y0239173D01*
Y0255315D01*
X0350650Y0258700D02*
X0354035Y0255315D01*
X0346051Y0258700D02*
X0350650D01*
X0273193Y0133724D02*
X0273524Y0134055D01*
X0271421Y0133724D02*
X0273193D01*
X0271358Y0133661D02*
X0271421Y0133724D01*
X0316466Y0256728D02*
Y0262711D01*
X0318333Y0264577D01*
X0321204D01*
X0295618Y0248520D02*
Y0249898D01*
Y0253787D01*
D26*
X0304243Y0214086D02*
Y0217869D01*
X0301083Y0210925D02*
X0304243Y0214086D01*
X0308417Y0122528D02*
X0313965D01*
X0317028Y0125591D01*
Y0151378D01*
X0314665Y0153740D02*
X0317028Y0151378D01*
X0298622Y0153740D02*
X0314665D01*
X0295779Y0156583D02*
X0298622Y0153740D01*
X0295779Y0156583D02*
Y0197748D01*
X0309558Y0211526D01*
Y0212554D01*
X0290779Y0158595D02*
Y0221609D01*
X0293280Y0140284D02*
Y0219301D01*
Y0140284D02*
X0293800Y0139764D01*
X0286465Y0154279D02*
X0290779Y0158595D01*
Y0221609D02*
X0293339Y0224168D01*
X0293280Y0219301D02*
X0294998Y0221019D01*
X0293339Y0224168D02*
X0304243D01*
X0294998Y0221019D02*
X0304243D01*
X0307862Y0129382D02*
X0308417Y0128827D01*
X0307862Y0129382D02*
Y0133905D01*
X0295618Y0228299D02*
X0296600Y0227318D01*
X0304243D01*
X0286465Y0150012D02*
Y0154279D01*
X0339861Y0268700D02*
X0346051D01*
X0336920Y0265759D02*
X0339861Y0268700D01*
X0336920Y0239916D02*
Y0265759D01*
X0337066Y0278700D02*
X0346051D01*
X0333760Y0275394D02*
X0337066Y0278700D01*
X0333760Y0247386D02*
Y0275394D01*
X0331605Y0245231D02*
X0333760Y0247386D01*
X0313702Y0172337D02*
X0315101Y0173737D01*
X0322516D01*
X0323762Y0172491D01*
X0329243D01*
X0327998Y0173737D02*
X0329243Y0172491D01*
X0339008Y0174360D02*
X0343264Y0178616D01*
Y0186483D01*
X0328456Y0264348D02*
X0328456Y0256486D01*
X0323947Y0256728D02*
X0324189Y0256486D01*
X0322156Y0249874D02*
X0323947Y0251665D01*
X0322156Y0245231D02*
X0322156Y0249874D01*
X0319007Y0245231D02*
Y0248711D01*
X0316323Y0251395D02*
X0319007Y0248711D01*
X0316323Y0251395D02*
Y0255172D01*
X0319007Y0233092D02*
X0319007Y0245231D01*
X0315857Y0212554D02*
Y0229943D01*
X0319007Y0233092D01*
X0311514Y0194543D02*
X0320707D01*
X0322156Y0195993D01*
X0322156Y0212554D02*
X0322156Y0195993D01*
X0328456Y0189706D02*
Y0212554D01*
X0325849Y0187099D02*
X0328456Y0189706D01*
X0306880Y0187099D02*
X0325849Y0187099D01*
X0334232Y0187099D02*
X0343880Y0187099D01*
X0331605Y0189726D02*
X0334232Y0187099D01*
X0331605Y0212554D02*
X0331605Y0189726D01*
X0309961Y0202705D02*
Y0203455D01*
X0315857Y0209351D01*
X0317371Y0201220D02*
X0319007Y0202856D01*
X0325306Y0212554D02*
Y0221764D01*
X0323889Y0223181D02*
X0325306Y0221764D01*
X0319007Y0223181D02*
X0323889Y0223181D01*
X0319007Y0223181D02*
Y0227067D01*
Y0223181D02*
X0319007Y0212554D01*
X0315857Y0209351D02*
Y0212554D01*
X0319007Y0202856D02*
X0319007Y0212554D01*
X0319007Y0227067D02*
X0328456Y0236516D01*
X0328456Y0245231D01*
X0310312Y0195745D02*
X0311514Y0194543D01*
X0310312Y0195745D02*
Y0200798D01*
X0309890Y0201220D02*
X0310312Y0200798D01*
X0343264Y0186483D02*
X0343880Y0187099D01*
X0306880Y0172484D02*
Y0187099D01*
X0295618Y0228299D02*
Y0232823D01*
Y0241039D01*
X0299114Y0210925D02*
X0299213D01*
X0301083D01*
X0324189Y0256486D02*
X0327165Y0256486D01*
X0323947Y0251665D02*
Y0256728D01*
X0327165Y0256486D02*
X0328456D01*
Y0245231D02*
Y0256486D01*
D27*
X0217665Y0122689D02*
X0296272D01*
X0302571D02*
X0302732Y0122528D01*
X0308417D01*
X0140157Y0336079D02*
X0140209Y0336028D01*
X0140157Y0336079D02*
Y0340748D01*
X0140205Y0319205D02*
X0140209Y0319209D01*
Y0328547D01*
X0140205Y0279772D02*
Y0312906D01*
X0258756Y0200063D02*
X0259398Y0199421D01*
X0258756Y0200063D02*
Y0205858D01*
D28*
X0194946Y0276343D02*
Y0319569D01*
X0189370Y0270768D02*
X0194946Y0276343D01*
X0126378Y0270768D02*
X0189370D01*
X0123984Y0268374D02*
X0126378Y0270768D01*
X0123984Y0236103D02*
Y0268374D01*
X0226360Y0291500D02*
Y0328511D01*
D29*
X0259398Y0182450D02*
Y0193122D01*
D30*
X0246990Y0277158D02*
Y0291500D01*
D31*
X0159449Y0273425D02*
D03*
D32*
X0194636Y0230413D02*
D03*
D33*
X0272835Y0189469D02*
D03*
D34*
X0229921Y0173917D02*
D03*
D35*
X0253888Y0236024D02*
D03*
D36*
X0155020Y0348622D02*
D03*
X0207776Y0349410D02*
D03*
X0259744Y0349409D02*
D03*
X0321358D02*
D03*
D37*
X0123984Y0299102D02*
D03*
X0273484D02*
D03*
X0123984Y0236103D02*
D03*
X0273484D02*
D03*
X0277484Y0234103D02*
D03*
X0119484D02*
D03*
X0277484Y0301102D02*
D03*
X0119484D02*
D03*
D38*
X0346051Y0248700D02*
D03*
Y0258700D02*
D03*
Y0268700D02*
D03*
Y0278700D02*
D03*
Y0288700D02*
D03*
Y0298700D02*
D03*
D39*
X0177229Y0319569D02*
D03*
X0185103D02*
D03*
D40*
X0155300Y0330239D02*
D03*
X0207032D02*
D03*
D41*
X0167387Y0319569D02*
D03*
X0194946D02*
D03*
D42*
X0226318Y0328511D02*
D03*
X0246318D02*
D03*
X0270984Y0329298D02*
D03*
X0290984D02*
D03*
X0310984D02*
D03*
D43*
X0271421Y0133724D02*
D03*
D44*
Y0143724D02*
D03*
Y0153724D02*
D03*
Y0163724D02*
D03*
D45*
X0327165Y0254921D02*
D03*
X0299213Y0210925D02*
D03*
X0217815Y0122539D02*
D03*
X0311417Y0132776D02*
D03*
X0140157Y0340748D02*
D03*
X0295374Y0237992D02*
D03*
X0322516Y0173737D02*
D03*
X0215861Y0201349D02*
D03*
Y0208349D02*
D03*
X0201161D02*
D03*
X0207961D02*
D03*
X0201061Y0201349D02*
D03*
X0208461D02*
D03*
X0201161Y0194349D02*
D03*
X0208361D02*
D03*
X0215861D02*
D03*
D46*
X0118307Y0324410D02*
D03*
X0353386Y0147244D02*
D03*
M02*
