G04 Layer_Color=8421504*
%FSAX25Y25*%
%MOIN*%
G70*
G01*
G75*
%ADD10R,0.05118X0.03937*%
%ADD11R,0.03937X0.05118*%
%ADD12R,0.07087X0.12598*%
%ADD13R,0.05906X0.05118*%
%ADD14R,0.05118X0.05906*%
%ADD15R,0.24410X0.22835*%
%ADD16R,0.11811X0.06299*%
%ADD17R,0.06000X0.06000*%
%ADD18R,0.09055X0.09055*%
%ADD19R,0.07008X0.12598*%
%ADD20R,0.08661X0.16142*%
G04:AMPARAMS|DCode=21|XSize=20mil|YSize=53.15mil|CornerRadius=5mil|HoleSize=0mil|Usage=FLASHONLY|Rotation=90.000|XOffset=0mil|YOffset=0mil|HoleType=Round|Shape=RoundedRectangle|*
%AMROUNDEDRECTD21*
21,1,0.02000,0.04315,0,0,90.0*
21,1,0.01000,0.05315,0,0,90.0*
1,1,0.01000,0.02158,0.00500*
1,1,0.01000,0.02158,-0.00500*
1,1,0.01000,-0.02158,-0.00500*
1,1,0.01000,-0.02158,0.00500*
%
%ADD21ROUNDEDRECTD21*%
G04:AMPARAMS|DCode=22|XSize=20mil|YSize=53.15mil|CornerRadius=5mil|HoleSize=0mil|Usage=FLASHONLY|Rotation=180.000|XOffset=0mil|YOffset=0mil|HoleType=Round|Shape=RoundedRectangle|*
%AMROUNDEDRECTD22*
21,1,0.02000,0.04315,0,0,180.0*
21,1,0.01000,0.05315,0,0,180.0*
1,1,0.01000,-0.00500,0.02158*
1,1,0.01000,0.00500,0.02158*
1,1,0.01000,0.00500,-0.02158*
1,1,0.01000,-0.00500,-0.02158*
%
%ADD22ROUNDEDRECTD22*%
%ADD23R,0.21850X0.08071*%
D10*
X0308417Y0128827D02*
D03*
Y0122528D02*
D03*
X0259398Y0193122D02*
D03*
Y0199421D02*
D03*
X0140205Y0312906D02*
D03*
Y0319205D02*
D03*
X0286465Y0143713D02*
D03*
Y0150012D02*
D03*
X0293949Y0140342D02*
D03*
Y0134043D02*
D03*
D11*
X0296272Y0122689D02*
D03*
X0302571D02*
D03*
X0307862Y0133905D02*
D03*
X0301563D02*
D03*
X0295657Y0232823D02*
D03*
X0289358D02*
D03*
D12*
X0235761Y0187521D02*
D03*
Y0204321D02*
D03*
D13*
X0250161Y0198290D02*
D03*
Y0190809D02*
D03*
X0140209Y0328547D02*
D03*
Y0336028D02*
D03*
X0295618Y0249898D02*
D03*
X0295618Y0242417D02*
D03*
D14*
X0258756Y0205858D02*
D03*
X0251276D02*
D03*
X0321204Y0264577D02*
D03*
X0328684D02*
D03*
X0309890Y0201220D02*
D03*
X0317371D02*
D03*
X0316466Y0256728D02*
D03*
X0323947Y0256728D02*
D03*
X0329243Y0172491D02*
D03*
X0336724D02*
D03*
X0313702Y0172337D02*
D03*
X0306221Y0172337D02*
D03*
D15*
X0208261Y0201349D02*
D03*
D16*
X0179861Y0210328D02*
D03*
X0179961Y0192549D02*
D03*
D17*
X0208361Y0207249D02*
D03*
D18*
X0246987Y0277158D02*
D03*
Y0259442D02*
D03*
D19*
X0226400Y0291500D02*
D03*
X0246990D02*
D03*
D20*
X0152661Y0189784D02*
D03*
Y0216949D02*
D03*
D21*
X0336920Y0217869D02*
D03*
X0336920Y0221019D02*
D03*
Y0224168D02*
D03*
Y0227318D02*
D03*
Y0230467D02*
D03*
Y0233617D02*
D03*
X0336920Y0236767D02*
D03*
X0336920Y0239916D02*
D03*
X0304243D02*
D03*
Y0236767D02*
D03*
X0304243Y0233617D02*
D03*
Y0230467D02*
D03*
Y0227318D02*
D03*
Y0224168D02*
D03*
Y0221019D02*
D03*
X0304243Y0217869D02*
D03*
D22*
X0309558Y0212554D02*
D03*
X0312708D02*
D03*
X0315857D02*
D03*
X0319007D02*
D03*
X0322156Y0212554D02*
D03*
X0325306Y0212554D02*
D03*
X0328456Y0212554D02*
D03*
X0331605Y0212554D02*
D03*
Y0245231D02*
D03*
X0328456Y0245231D02*
D03*
X0325306D02*
D03*
X0322156D02*
D03*
X0319007D02*
D03*
X0315857D02*
D03*
X0312708D02*
D03*
X0309558D02*
D03*
D23*
X0308455Y0187099D02*
D03*
X0345455D02*
D03*
M02*
