M48
;Layer_Color=9474304
;FILE_FORMAT=2:5
INCH
;TYPE=PLATED
T1F00S00C0.02800
T2F00S00C0.03500
T3F00S00C0.03543
T4F00S00C0.03937
T5F00S00C0.05500
T6F00S00C0.05906
T7F00S00C0.09055
T8F00S00C0.10000
T9F00S00C0.16535
%
T01
X0217815Y0122539
X0311417Y0132776
X0322516Y0173737
X0327165Y0254921
X0295374Y0237992
X0299213Y0210925
X0215861Y0208349
Y0201349
Y0194349
X0208361
X0208461Y0201349
X0201061
X0201161Y0208349
X0207961
X0201161Y0194349
X0140157Y0340748
T02
X0271421Y0133724
Y0143724
Y0153724
Y0163724
T03
X0346051Y0248700
Y0258700
Y0268700
Y0278700
Y0288700
Y0298700
X0277484Y0301102
X0273484Y0299102
Y0236103
X0277484Y0234103
X0123984Y0236103
X0119484Y0234103
Y0301102
X0123984Y0299102
T04
X0177229Y0319569
X0185103
T05
X0167387Y0319569
X0194946
T06
X0226318Y0328511
X0246318
X0270984Y0329298
X0290984
X0310984
T07
X0155300Y0330239
X0207032
T08
X0155020Y0348622
X0207776Y0349410
X0259744Y0349409
X0321358
T09
X0353386Y0147244
X0118307Y0324410
M30
